<?xml version="1.0" encoding="UTF-8" standalone="no"?>
<svg
   version="1.1"
   width="1024"
   height="1024"
   id="svg113"
   xmlns="http://www.w3.org/2000/svg"
   xmlns:svg="http://www.w3.org/2000/svg">
  <defs
     id="defs113" />
  <g
     id="g113"
     transform="matrix(1.6597535,0,0,1.6597535,-338.16627,-363.42543)">
    <path
       d="M 0,0 C 1.208194,0.26443405 1.208194,0.26443405 2.4407959,0.53421021 53.935894,11.855464 104.05498,29.983511 149.125,57.625 c 1.0323,0.624551 1.0323,0.624551 2.08545,1.261719 8.20674,4.965677 15.97673,10.085519 23.36377,16.21875 2.40998,1.731224 2.40998,1.731224 5.02344,1.515625 3.21448,-1.266914 5.53418,-3.011508 8.27734,-5.121094 50.94613,-37.696657 113.38855,-59.233919 174.8125,-72.25 1.23186,-0.263291 2.46372,-0.526582 3.73291,-0.7978516 14.50513,-2.9891299 14.50513,-2.9891299 20.01709,-0.077148 2.68207,2.24545612 3.54029,3.0585004 4.6875,6.25 0.16811,2.647116 0.23306,5.1843153 0.19531,7.8281246 -0.004,1.123509 -0.004,1.123509 -0.009,2.269714 -0.0112,2.384219 -0.0363,4.768057 -0.0617,7.152161 -0.01,1.619786 -0.0192,3.239578 -0.0273,4.859375 -0.022,3.963687 -0.0565,7.927092 -0.0977,11.890625 0.69617,0.05116 1.39235,0.102319 2.10962,0.155029 5.91489,0.478659 11.57394,1.209045 17.32788,2.657471 1.01997,0.229131 1.01997,0.229131 2.06055,0.462891 4.24798,1.050577 6.75994,2.295407 9.50195,5.724609 1.16889,2.337789 1.12832,3.703368 1.13422,6.308263 0.004,0.910065 0.009,1.82013 0.0135,2.757772 -2.8e-4,1.509452 -2.8e-4,1.509452 -5.6e-4,3.049398 0.004,1.063988 0.007,2.127976 0.0111,3.224206 0.0111,3.589022 0.0149,7.178014 0.0187,10.76705 0.006,2.56358 0.0129,5.127158 0.0199,7.690735 0.0193,7.710045 0.0298,15.420084 0.0387,23.130146 0.004,3.629 0.01,7.258 0.015,10.887 0.017,12.06038 0.0315,24.12076 0.0387,36.18115 0.002,3.13058 0.004,6.26116 0.006,9.39173 4.8e-4,0.77811 9.6e-4,1.55622 10e-4,2.3579 0.008,12.6095 0.0337,25.21891 0.0661,37.82837 0.0331,12.93986 0.0511,25.87967 0.0543,38.81958 0.002,7.26774 0.011,14.53534 0.0365,21.80304 0.0239,6.83472 0.0275,13.66918 0.0172,20.50393 -4.9e-4,2.51189 0.006,5.02379 0.0196,7.53564 0.0176,3.42287 0.0107,6.84483 -0.003,10.26771 0.0165,1.49941 0.0165,1.49941 0.0332,3.02911 -0.0401,4.28622 -0.11335,6.78405 -2.34444,10.52344 -6.07656,5.42685 -15.29518,6.19649 -23.02155,7.90175 -20.70695,4.60822 -40.9376,10.65038 -61.155,17.04208 -0.74333,0.23481 -1.48665,0.46962 -2.2525,0.71155 -32.59057,10.32513 -64.21412,22.78658 -95.53607,36.45398 -4.09748,1.78723 -8.2024,3.55681 -12.30909,5.32275 -1.94124,0.83599 -3.88232,1.67234 -5.8233,2.50894 -1.25244,0.53982 -2.505,1.07935 -3.75769,1.61859 -6.30749,2.71823 -12.5835,5.48161 -18.79401,8.41544 -1.50373,0.70612 -1.50373,0.70612 -3.03784,1.42651 -1.83754,0.86905 -3.6691,1.75095 -5.49267,2.64893 -0.81107,0.38374 -1.62213,0.76748 -2.45777,1.16284 -0.68884,0.3362 -1.37768,0.67241 -2.0874,1.0188 -6.8624,1.99202 -12.01907,0.52774 -18.18604,-2.47192 -0.71081,-0.33058 -1.42162,-0.66115 -2.15397,-1.00174 -2.29391,-1.07039 -4.57741,-2.16131 -6.86165,-3.25217 -1.59761,-0.74833 -3.196,-1.49498 -4.79517,-2.23999 -3.12322,-1.45694 -6.24314,-2.92053 -9.35962,-4.39185 C 86.8787,359.49262 26.346859,336.77928 -35.460937,322.33594 c -0.76442,-0.17959 -1.528839,-0.35917 -2.316422,-0.54419 -3.60152,-0.84221 -7.205726,-1.66218 -10.82103,-2.44312 -11.859189,-2.69112 -11.859189,-2.69112 -16.276611,-7.72363 -0.933931,-2.80179 -1.1268,-4.48882 -1.131428,-7.38446 -0.0038,-0.9016 -0.0077,-1.80321 -0.01164,-2.73214 8.67e-4,-0.99171 0.0017,-1.98343 0.0026,-3.0052 -0.003,-1.05259 -0.0059,-2.10518 -0.009,-3.18967 -0.0087,-3.54446 -0.0102,-7.08888 -0.01169,-10.63335 -0.0046,-2.53417 -0.0097,-5.06834 -0.01504,-7.60251 -0.01314,-6.89664 -0.01961,-13.79326 -0.02401,-20.6899 -0.0028,-4.30522 -0.007,-8.61044 -0.0115,-12.91567 -0.01219,-11.91716 -0.02249,-23.83433 -0.02587,-35.7515 -3.29e-4,-1.14417 -3.29e-4,-1.14417 -6.65e-4,-2.31146 -2.19e-4,-0.76461 -4.37e-4,-1.52923 -6.62e-4,-2.31701 -4.43e-4,-1.54943 -8.9e-4,-3.09886 -0.0013,-4.64828 -2.22e-4,-0.76857 -4.43e-4,-1.53714 -6.71e-4,-2.329 -0.004,-12.45746 -0.02141,-24.91486 -0.04469,-37.37229 -0.0237,-12.78621 -0.03618,-25.57239 -0.03734,-38.35863 -9.17e-4,-7.18051 -0.0067,-14.36094 -0.02482,-21.541427 -0.01699,-6.751806 -0.01866,-13.503443 -0.0099,-20.255272 7.73e-4,-2.481245 -0.0036,-4.962497 -0.01346,-7.443722 -0.01264,-3.38109 -0.0069,-6.76166 0.0036,-10.142746 -0.0081,-0.987254 -0.01611,-1.974508 -0.02441,-2.991679 0.03597,-4.949156 0.140188,-8.379118 3.391906,-12.384084 3.040792,-2.881415 5.784417,-3.617467 9.859375,-4.386719 1.672559,-0.323877 1.672559,-0.323877 3.378906,-0.654297 1.738301,-0.320009 1.738301,-0.320009 3.511719,-0.646484 1.174336,-0.224941 2.348672,-0.449883 3.558594,-0.681641 2.895461,-0.553198 5.792434,-1.09642 8.691406,-1.630859 0.01458,-1.003777 0.02916,-2.007554 0.04419,-3.041748 0.05813,-3.73701 0.135363,-7.473426 0.218262,-11.209961 0.03318,-1.614811 0.06123,-3.229735 0.08398,-4.844727 0.03367,-2.32642 0.08599,-4.651802 0.141845,-6.977783 0.0064,-0.717902 0.01278,-1.435804 0.01936,-2.1754606 C -33.239548,4.9825755 -32.656072,2.0723915 -29.875,-1.375 -21.632092,-6.8161012 -8.9172368,-1.9770552 0,0 Z"
       fill="#2d306b"
       transform="translate(333.875,352.375)"
       id="path1" />
    <path
       d="m 0,0 c 0,79.2 0,158.4 0,240 -20.295,7.92 -20.295,7.92 -41,16 -11.409832,5.21815 -22.744376,10.47491 -34,16 -1.937098,0.93573 -3.874555,1.87071 -5.8125,2.80469 C -106.63863,287.36015 -131.60712,302.36061 -155,319 c -1.2576,0.88572 -2.51541,1.77114 -3.77344,2.65625 -5.98375,4.22763 -11.87473,8.53041 -17.55468,13.16406 C -178,336 -178,336 -180,336 c -0.45836,-32.88361 -0.81048,-65.76639 -1.02131,-98.65248 -0.025,-3.88749 -0.0509,-7.77498 -0.0773,-11.66246 -0.005,-0.77389 -0.0105,-1.54778 -0.0159,-2.34512 -0.0869,-12.51071 -0.2445,-25.01958 -0.42853,-37.52921 -0.18742,-12.84819 -0.29819,-25.69542 -0.33871,-38.54492 -0.0274,-7.92221 -0.11358,-15.8392 -0.27656,-23.75979 -0.11883,-6.0871 -0.13069,-12.16975 -0.10382,-18.25814 -0.005,-2.48746 -0.045,-4.97512 -0.12196,-7.461396 -0.53598,-18.216476 -0.53598,-18.216476 4.2948,-24.122434 4.67299,-4.240624 9.86971,-7.35492 15.4454,-10.2627 3.55267,-1.883019 6.9308,-4.009854 10.33248,-6.150316 4.04504,-2.517457 8.18297,-4.87394 12.31143,-7.251034 0.76651,-0.449077 1.53302,-0.898154 2.32275,-1.36084 20.5305,-11.99618 42.73669,-22.187866 65.267582,-29.820801 2.725436,-0.925599 5.439939,-1.880562 8.155762,-2.833984 12.220778,-4.235739 24.433243,-7.7000202 37.05957,-10.4892578 C -24.23854,4.8281886 -21.30769,4.0739438 -18.375,3.3125 -5.2755682,0 -5.2755682,0 0,0 Z"
       fill="#eff0f0"
       transform="translate(703,373)"
       id="path2" />
    <path
       d="m 0,0 c 8.1717574,0.90797304 15.887562,2.3635477 23.875,4.1875 1.035273,0.2353395 1.035273,0.2353395 2.091461,0.4754334 C 37.1874,7.2268248 48.131187,10.205064 59,14 c 1.025933,0.349014 2.051865,0.698027 3.108887,1.057617 C 79.140776,20.856856 95.701707,27.375477 112,35 c 0.87028,0.40686 1.74056,0.813721 2.63721,1.23291 C 163.18823,59.188234 163.18823,59.188234 180,76 c 0.2484,1.909113 0.2484,1.909113 0.2461,4.290995 0.004,0.906181 0.008,1.812363 0.0121,2.746004 -0.006,1.00193 -0.0117,2.00386 -0.0177,3.036152 0.002,1.059349 0.003,2.118697 0.005,3.210148 0.003,3.573115 -0.008,7.146045 -0.0186,10.719141 -5.6e-4,2.55199 -2.5e-4,5.10398 8.9e-4,7.65596 4.5e-4,5.50629 -0.005,11.01252 -0.0165,16.5188 -0.0162,7.96121 -0.0215,15.92239 -0.024,23.88361 -0.004,12.91562 -0.0177,25.83121 -0.0366,38.74681 -0.0183,12.5485 -0.0325,25.09699 -0.041,37.6455 -5.2e-4,0.77311 -0.001,1.54622 -0.002,2.34275 -0.003,3.87833 -0.005,7.75667 -0.008,11.635 C 180.0799,270.6206 180.04467,302.8103 180,335 c -3.59522,-1.3753 -6.13966,-2.7369 -9.0625,-5.25 C 156.30002,317.77585 140.20046,307.6969 124,298 c -0.95423,-0.5725 -1.90846,-1.14501 -2.8916,-1.73486 C 106.67602,287.63951 92.030121,279.53631 77,272 76.009194,271.50258 75.018389,271.00517 73.997559,270.49268 62.338482,264.67901 50.55657,259.25247 38.5,254.3125 37.518701,253.90959 36.537402,253.50667 35.526367,253.09155 23.801868,248.38172 11.903747,244.28535 0,240 0,160.8 0,81.6 0,0 Z"
       fill="#eff1f0"
       transform="translate(322,373)"
       id="path3" />
    <path
       d="m 0,0 c 0.00331015,1.0837503 0.00662029,2.1675007 0.01003075,3.284092 0.08092676,26.34725 0.17322153,52.694442 0.27749633,79.041611 0.0501618,12.741192 0.0966043,25.482377 0.13434792,38.223617 0.0328995,11.10282 0.0727194,22.2056 0.12091506,33.30837 0.0252853,5.88102 0.0470606,11.762 0.0605539,17.64305 0.0128019,5.5321 0.0348361,11.06409 0.0640392,16.59612 0.00909,2.03336 0.0147694,4.06673 0.0168304,6.10011 0.003312,2.77067 0.0187613,5.54102 0.0373135,8.31164 -0.001935,0.80933 -0.003869,1.61867 -0.005863,2.45254 C 0.75226317,210.29671 0.75226317,210.29671 3,215 c 6.705776,4.37393 15.14364,6.48045 22.682617,9.06396 C 48.79399,232.05753 71.258661,241.82724 93,253 c 0.943271,0.4813 1.886543,0.96261 2.858398,1.4585 C 109.15059,261.24684 122.29023,268.16885 135,276 c 0.77038,0.47292 1.54075,0.94585 2.33447,1.43311 C 147.84385,283.909 158.06414,290.67372 168,298 c -3.64185,1.21395 -4.77147,0.38841 -8.08838,-1.24854 -0.69271,-0.3511 -1.38542,-0.70221 -2.09912,-1.06396 -10.18834,-4.98121 -20.62764,-9.29493 -31.12158,-13.58594 -2.25303,-0.9223 -4.50208,-1.85326 -6.74951,-2.78906 -19.69276,-8.07908 -40.101837,-14.4159 -60.298832,-21.10181 -2.519022,-0.83725 -5.035894,-1.67936 -7.550781,-2.52881 C 45.271076,253.38199 38.454682,251.17262 31.5,249.3125 c -1.468808,-0.39953 -2.937559,-0.79926 -4.40625,-1.19922 -0.621973,-0.16717 -1.243945,-0.33435 -1.884766,-0.50659 C 22.132634,246.76178 19.067518,245.87643 16,245 6.76,242.69 -2.48,240.38 -12,238 -12,159.79 -12,81.58 -12,1 -3,0 -3,0 0,0 Z"
       fill="#eceded"
       transform="translate(301,412)"
       id="path4" />
    <path
       d="m 0,0 c 4.0399404,0.55450162 7.9977788,1.1995558 12,2 0,78.21 0,156.42 0,237 -8.58,1.98 -17.16,3.96 -26,6 -5.408614,1.46185 -10.7661,2.94654 -16.125,4.5625 -0.688903,0.20582 -1.377806,0.41163 -2.087585,0.62369 C -37.484152,251.76161 -42.744528,253.37175 -48,255 c -0.783267,0.24255 -1.566533,0.48509 -2.373535,0.73499 -57.212835,17.6259 -57.212835,17.6259 -111.537105,42.4403 C -164,299 -164,299 -167,298 c 8.46062,-6.50387 17.3823,-12.03793 26.5249,-17.51611 2.53308,-1.51865 5.0611,-3.04546 7.58838,-4.57373 13.96341,-8.43134 27.93737,-16.66357 42.615236,-23.79883 2.374729,-1.16184 4.73688,-2.34717 7.099609,-3.53321 22.749186,-11.28322 46.643693,-21.18223 70.79126,-29.05737 1.178404,-0.40086 1.178404,-0.40086 2.380615,-0.80981 0.66,-0.2135 1.32,-0.427 2,-0.64698 3.051725,-1.62346 4.8106798,-3.36773 7,-6.06396 0.49327294,-3.06987 0.67962193,-5.58354 0.63923645,-8.64961 0.008356,-0.86999 0.0167114,-1.73997 0.0253202,-2.63632 0.0219439,-2.91462 0.008319,-5.82798 -0.005133,-8.74263 0.008452,-2.0894 0.0190954,-4.17878 0.0317688,-6.26815 0.0281895,-5.67318 0.025667,-11.34599 0.0177062,-17.01923 -0.003121,-5.92845 0.0218977,-11.85678 0.0439546,-17.78518 0.0374821,-11.22672 0.0495905,-22.45331 0.0526244,-33.68009 0.004686,-12.78106 0.0375959,-25.56201 0.0728978,-38.343024 C -0.04963788,52.583859 -0.01316476,26.291998 0,0 Z"
       fill="#e9eaea"
       transform="translate(724,412)"
       id="path5" />
    <path
       d="m 0,0 c 2.2265625,0.41015625 2.2265625,0.41015625 5.2265625,2.4726563 2.573132,3.7792876 3.3723607,5.3202275 3,9.9374997 -2.3105528,3.947953 -5.143597,7.435685 -8,11 -19.1484425,25.261371 -27.3359715,58.113793 -23.5854495,89.465334 1.803998,11.58136 4.141021,23.0792 9.585449,33.53467 0.753221,1.52573 1.505761,3.05181 2.257813,4.57812 4.4901939,8.95331 9.0837964,16.90235 15.7421875,24.42188 2.8242036,3.34479 3.5224451,5.54115 3.3632812,10.03125 -0.5712085,3.09558 -2.1496099,4.82018 -4.3632812,6.96875 -3.43099564,1.71549 -6.3607926,2.00565 -10,1 -13.5331565,-10.04316 -21.9298705,-29.78241 -27.9999995,-45 -0.501446,-1.09184 -1.002891,-2.18368 -1.519532,-3.3086 -1.840649,-4.58948 -2.987094,-9.19558 -4.105468,-14.0039 -0.216563,-0.88623 -0.433125,-1.77246 -0.65625,-2.68555 -4.793549,-20.28381 -4.998054,-43.814427 0.28125,-64.001954 0.198676,-0.786328 0.397353,-1.572656 0.60205,-2.382812 3.102108,-12.008759 7.416306,-22.776347 13.39795,-33.617188 0.658287,-1.23789 1.315847,-2.476168 1.972656,-3.714844 4.237104,-7.841224 9.076187,-14.653196 15.0273435,-21.2851557 C -9.2823047,2.8262109 -8.7911719,2.2422656 -8.2851563,1.640625 -5.7107077,-0.45485636 -3.1963321,-0.11973231 0,0 Z"
       fill="#69bc9e"
       transform="translate(424.77344,421.58984)"
       id="path6" />
    <path
       d="m 0,0 c 7.6738783,4.4140398 12.41836,12.679104 17,20 0.383335,0.61021 0.76667,1.22042 1.161621,1.849121 6.028653,9.755733 10.558966,19.810786 14.05957,30.729492 0.500771,1.556943 1.019868,3.108173 1.561524,4.651367 4.453749,12.909294 4.715516,25.880823 4.779785,39.39502 0.0089,0.864014 0.0177,1.728029 0.02683,2.618225 C 38.72994,119.51436 34.823003,138.70489 26,157 c -0.504023,1.09441 -1.008047,2.18883 -1.527344,3.31641 C 19.678869,170.41156 11.336563,187.83172 1,193 c -4.0790981,0.38482 -6.2908987,0.44122 -9.8125,-1.75 -2.681636,-2.75825 -3.87107,-4.63236 -4.605469,-8.38672 C -12.756862,178.33439 -9.8633331,175.58154 -7,172.125 -0.91220122,164.48775 3.7846241,156.78639 8,148 8.609082,146.80891 8.609082,146.80891 9.2304688,145.59375 12.554226,138.76795 14.223035,131.34678 16,124 c 0.180952,-0.6202 0.361904,-1.2404 0.54834,-1.87939 C 18.651055,114.27637 18.397863,106.18468 18.375,98.125 18.3732,96.951656 18.3732,96.951656 18.3713,95.754608 18.244636,65.581345 8.5623404,39.018078 -11.128906,16 -13.407501,12.346638 -13.505517,10.23433 -13,6 -9.3755126,0.4424526 -6.6346454,-0.85608328 0,0 Z"
       fill="#69bd9e"
       transform="translate(610,421)"
       id="path7" />
    <path
       d="M 0,0 C 2.7532902,1.795624 4.5262746,3.0525492 6,6 6.8420226,10.546922 6.7997733,12.772853 4.2382812,16.703125 2.6506154,18.71938 1.0550595,20.729438 -0.546875,22.734375 -14.072167,40.130046 -16.553481,62.724064 -15,84 -12.848257,99.680411 -5.4377968,114.83784 5.5234375,126.14844 7,128 7,128 7.6875,131.75 6.8058593,135.91776 5.7135387,138.71485 2.25,141.3125 -1.0739743,142.32816 -3.5368626,142.41796 -7,142 c -4.69134,-3.37249 -7.811353,-7.05579 -10.9375,-11.875 -0.427485,-0.65202 -0.854971,-1.30405 -1.29541,-1.97583 C -34.093831,104.9161 -40.010919,77.860604 -34.921143,50.547119 -31.437679,34.902307 -19.524375,-2.0197629 0,0 Z"
       fill="#69bc9e"
       transform="translate(456,447)"
       id="path8" />
    <path
       d="m 0,0 c 9.0131441,2.287952 14.562845,14.112659 19.03125,21.515625 12.916801,22.155122 16.320572,51.141101 10,76 -4.247871,14.876635 -10.617608,28.376005 -21,39.999995 -0.9532617,1.10989 -0.9532617,1.10989 -1.9257813,2.24219 -3.1668185,2.68375 -5.72392245,2.37003 -9.7265625,2.22266 -2.3476562,-0.46485 -2.3476562,-0.46485 -4.9101562,-2.83985 -2.160763,-3.94574 -2.926437,-6.04876 -2.4375,-10.625 1.4530316,-2.22486 2.8427156,-4.07355 4.5625,-6.06249 8.9658533,-11.07781 13.5940979,-22.11796 16.4375,-35.937505 0.19207,-0.777305 0.384141,-1.554609 0.582031,-2.355469 3.450349,-21.830712 -2.2837157,-42.98165 -14.644531,-61.03125 -1.5565467,-2.099455 -3.1255448,-3.932202 -4.9375,-5.800781 -2.428698,-3.415356 -2.741185,-5.564968 -2.476563,-9.6875 C -10.124842,1.7526243 -5.7968799,-0.47586327 0,0 Z"
       fill="#69bd9e"
       transform="translate(577.96875,445.48437)"
       id="path9" />
    <path
       d="m 0,0 c 4.0511324,1.0037565 5.5460794,2.219353 8.1914063,5.5429687 0.9905335,3.2255836 0.8730148,5.7507323 0,9.0000003 C 6.6404641,17.22034 4.8906706,19.609315 3.0117188,22.066406 -1.3437168,27.992042 -3.4747544,34.198503 -3.8085938,41.542969 -3.9033398,42.79207 -3.9033398,42.79207 -4,44.066406 -4.5367812,56.15264 -0.03871753,65.158054 7.1914062,74.542969 c 2.3416877,3.512531 2.4962368,4.864693 2.0000001,9 -2.1520683,3.381821 -4.1410417,5.751513 -8.0000001,7 -2.9374999,0.4375 -2.9374999,0.4375 -5.9999999,0 -2.5,-2 -2.5,-2 -5.0000001,-5 -0.7270312,-0.854649 -0.7270312,-0.854649 -1.4687502,-1.726563 -4.26613,-5.289131 -6.950814,-11.018686 -9.53125,-17.273437 -0.533672,-1.185293 -0.533672,-1.185293 -1.078125,-2.394532 -4.568356,-12.911412 -3.754337,-31.16531 1.589844,-43.660156 2.275045,-4.50232 4.613749,-8.795666 7.488281,-12.9453123 C -12.347109,6.8275391 -11.885625,6.1121094 -11.410156,5.375 -8.1846848,0.91101876 -5.5631117,-0.49889158 0,0 Z"
       fill="#69bc9e"
       transform="translate(483.80859,473.45703)"
       id="path10" />
    <path
       d="M 0,0 C 4.6016456,0.76694094 6.5279583,1.5472622 9.5585938,5.1796875 20.362198,20.795296 25.800536,36.727733 23.054199,55.789062 20.539386,69.233991 15.121151,80.816349 5.375,90.5625 c -3.0561034,0.570393 -5.94031349,0.533728 -9,0 -2.7556945,-2.181591 -4.4358875,-3.871775 -6,-7 -0.454475,-4.82546 0.290681,-7.082595 3.25,-10.875 C 2.2990086,61.01095 3.7549793,49.902153 2.375,35.5625 0.51612946,27.960303 -3.4005232,21.9562 -8.2695313,15.914063 -10.014671,12.886471 -10.044342,11.008397 -9.625,7.5625 -7.4015825,3.1482425 -4.8973792,0.75993815 0,0 Z"
       fill="#68bd9e"
       transform="translate(546.625,471.4375)"
       id="path11" />
    <path
       d="m 0,0 c 1.32,0.33 2.64,0.66 4,1 0,85.8 0,171.6 0,260 -0.66,0 -1.32,0 -2,0 -0.33,0.66 -0.66,1.32 -1,2 -0.93935435,-2.81806 -1.124451,-4.51528 -1.12304783,-7.42966 -0.001991,-0.91166 -0.003982,-1.82331 -0.006033,-2.76259 0.002913,-1.00291 0.005826,-2.00582 0.008827,-3.03912 -8.5442e-4,-1.06429 -0.001709,-2.12857 -0.002589,-3.22511 -0.001654,-3.58378 0.003865,-7.16751 0.009318,-10.75128 2.8192e-4,-2.56199 1.2404e-4,-5.12398 -4.4251e-4,-7.68596 -2.2808e-4,-5.52481 0.002617,-11.0496 0.008238,-16.57441 0.008121,-7.98798 0.01073084,-15.97595 0.01198799,-23.96393 0.0021896,-12.95941 0.0088471,-25.91883 0.01830262,-38.87824 0.0091766,-12.59017 0.0162562,-25.18034 0.02050781,-37.77051 2.6272e-4,-0.77583 5.2545e-4,-1.55166 7.9613e-4,-2.351 0.001305,-3.89205 0.0025687,-7.7841 0.0038119,-11.676142 C -0.03995394,64.594694 -0.0223382,32.297348 0,0 Z"
       fill="#23275d"
       transform="translate(752,401)"
       id="path12" />
    <path
       d="m 0,0 c 0.33,85.8 0.66,171.6 1,260 -1.32,-0.33 -2.64,-0.66 -4,-1 C -3,173.86 -3,88.72 -3,1 -1,0 -1,0 0,0 Z"
       fill="#1f215b"
       transform="translate(272,404)"
       id="path13" />
    <path
       d="m 0,0 c 4.95,0 9.9,0 15,0 0.200431,27.867489 0.383767,55.735046 0.546588,83.602781 0.076,12.938627 0.15765,25.877169 0.252484,38.815679 0.08262,11.27338 0.154755,22.54678 0.214161,33.82031 0.03184,5.9727 0.06903,11.94526 0.118761,17.91784 0.04659,5.61574 0.07923,11.23138 0.100928,16.84727 0.01049,2.06649 0.02618,4.13296 0.04732,6.19937 0.028,2.8108 0.03768,5.62106 0.04256,8.43197 0.01894,1.24026 0.01894,1.24026 0.03827,2.50557 -0.0075,2.271 -0.0075,2.271 -0.361071,5.85921 -1.485,0.99 -1.485,0.99 -3,2 -1.800178,-1.80018 -1.122607,-4.25504 -1.129081,-6.65161 0.0029,-0.81808 0.0058,-1.63615 0.0088,-2.47902 -8.54e-4,-0.86248 -0.0017,-1.72497 -0.0026,-2.61359 -0.0017,-2.91283 0.0039,-5.82561 0.0093,-8.73845 2.81e-4,-2.07893 1.24e-4,-4.15787 -4.43e-4,-6.23681 -2.88e-4,-5.66299 0.0056,-11.32597 0.01257,-16.98895 0.0062,-5.91107 0.0068,-11.82214 0.008,-17.73321 0.0031,-11.20204 0.01133,-22.40407 0.02135,-33.60611 0.01116,-12.74947 0.01667,-25.498951 0.02169,-38.248432 C 11.960142,56.469207 11.977743,30.234604 12,4 10.02,4 8.04,4 6,4 6,3.34 6,2.68 6,2 4.02,2 2.04,2 0,2 0,1.34 0,0.68 0,0 Z"
       fill="#25285f"
       transform="translate(289,408)"
       id="path14" />
    <path
       d="M 0,0 C 0.66,0 1.32,0 2,0 2.33,0.66 2.66,1.32 3,2 3.33,1.34 3.66,0.68 4,0 7.3,0 10.6,0 14,0 14,0.99 14,1.98 14,3 10.04,3.66 6.08,4.32 2,5 1.9957681,6.0206067 1.9915361,7.0412135 1.9871759,8.0927477 1.8838932,32.948642 1.7751334,57.804507 1.6606607,82.660352 1.6054284,94.680541 1.5519631,106.70073 1.5026855,118.72095 c -0.042964,10.47918 -0.089273,20.95834 -0.1395641,31.43749 -0.026502,5.54644 -0.051352,11.09288 -0.072195,16.63934 -0.019691,5.22594 -0.043871,10.45184 -0.071417,15.67775 -0.0093,1.9127 -0.017003,3.82541 -0.022928,5.73813 C 1.1373551,206.76863 1.1373551,206.76863 0,216 c -0.33,0 -0.66,0 -1,0 -1.0207662,-42.25264 -1.1882134,-84.49129 -1.1851102,-126.75404 -3.577e-4,-7.156876 -0.012097,-14.313704 -0.025936,-21.470564 -0.013038,-6.99641 -0.018443,-13.992799 -0.017801,-20.989221 2.538e-4,-4.138071 -0.00254,-8.276082 -0.013178,-12.414141 -0.00963,-3.842815 -0.0098,-7.685511 -0.00248,-11.52833 0.00105,-1.40655 -0.00133,-2.813107 -0.00736,-4.219644 -0.00768,-1.914075 -0.00189,-3.82819 0.00463,-5.74227 -5.447e-4,-1.070122 -0.00109,-2.140243 -0.00165,-3.2427929 C -2,7 -2,7 0,4 0,2.68 0,1.36 0,0 Z"
       fill="#20245c"
       transform="translate(722,408)"
       id="path15" />
    <path
       d="m 0,0 c 0.33,0 0.66,0 1,0 0,85.47 0,170.94 0,259 -1.65,-0.66 -3.3,-1.32 -5,-2 0.3251783,-0.53581 0.6503566,-1.07162 0.9853888,-1.62367 1.2610075,-2.95342 1.2577985,-5.18677 1.2483911,-8.39766 0.0013,-1.23371 0.00261,-2.46742 0.00395,-3.73851 -0.00867,-1.3644 -0.017529,-2.72879 -0.02655,-4.09319 -0.0022,-1.43911 -0.00351,-2.87822 -0.00398,-4.31733 -0.00293,-3.0977 -0.012177,-6.1953 -0.026304,-9.29297 -0.022274,-4.89989 -0.030358,-9.79973 -0.036501,-14.69966 -0.011382,-7.75239 -0.032107,-15.50472 -0.056898,-23.25708 -0.044304,-13.87672 -0.077538,-27.75346 -0.100244,-41.63024 -0.0084,-4.86891 -0.022414,-9.73776 -0.040973,-14.60664 -0.010663,-3.03218 -0.017234,-6.06437 -0.0228,-9.09657 -0.00346,-1.40363 -0.00867,-2.80727 -0.015768,-4.21089 -0.0095,-1.92008 -0.012159,-3.84019 -0.014507,-5.76029 -0.00528,-1.60995 -0.00528,-1.60995 -0.010665,-3.25243 C -1.9975091,105.9359 -1.5293533,103.04029 -1,100 c 0.0906839,-1.504163 0.14493394,-3.011078 0.15821838,-4.517914 0.009789,-0.849663 0.0195776,-1.699327 0.0296631,-2.574737 0.005755,-0.913503 0.0115109,-1.827005 0.0174408,-2.768189 0.0099,-0.976233 0.0197992,-1.952466 0.0299988,-2.958282 0.0314864,-3.213914 0.0563215,-6.427843 0.0810852,-9.641816 0.0205806,-2.233453 0.0415774,-4.466902 0.062973,-6.700347 0.055106,-5.868937 0.10456579,-11.737908 0.15284729,-17.606903 0.0502989,-5.992667 0.10594113,-11.985283 0.16113282,-17.977906 C -0.19919937,23.502647 -0.09772338,11.751344 0,0 Z"
       fill="#e4e6e7"
       transform="translate(501,449)"
       id="path16" />
    <path
       d="m 0,0 c 0.66,0.33 1.32,0.66 2,1 0.33,52.8 0.66,105.6 1,160 -1.32,0.33 -2.64,0.66 -4,1 -0.66,-0.66 -1.32,-1.32 -2,-2 0.2042328,-1.56623 0.4235219,-3.13122 0.694809,-4.68724 0.687074,-5.2067 0.4772801,-10.50952 0.4946441,-15.7527 0.00795,-1.35924 0.016342,-2.71847 0.025131,-4.0777 0.017991,-2.91751 0.03303,-5.83501 0.045776,-8.75255 0.020333,-4.62485 0.047973,-9.24963 0.076675,-13.87443 0.05996,-9.82677 0.1118057,-19.653567 0.1629639,-29.48038 0.05522,-10.590668 0.1119818,-21.181318 0.1775489,-31.771928 0.028119,-4.585095 0.051796,-9.170183 0.071925,-13.75532 0.013528,-2.869754 0.030931,-5.739477 0.049311,-8.609204 0.011273,-1.938072 0.017962,-3.876168 0.024443,-5.814262 C -1.1215518,15.576674 -0.70720449,7.8158383 0,0 Z"
       fill="#f8f9f8"
       transform="translate(497,543)"
       id="path17" />
    <path
       d="M 0,0 C 1.4953613,1.0578613 1.4953613,1.0578613 3,3 3.2487793,6.1862793 3.2487793,6.1862793 3.074219,10.074219 3.047778,10.758051 3.021337,11.441884 2.994095,12.146439 2.906415,14.327689 2.7972445,16.507259 2.6875,18.6875 2.624232,20.167258 2.5623663,21.647076 2.5019531,23.126953 2.3508915,26.752147 2.1805447,30.376141 2,34 0.515,34.495 0.515,34.495 -1,35 -1.024687,30.336918 -1.042854,25.673874 -1.054932,21.010742 -1.059962,19.423821 -1.066794,17.836905 -1.07544,16.25 -1.087545,13.971343 -1.093238,11.692746 -1.097657,9.4140625 -1.102817,8.7025503 -1.10798,7.9910382 -1.113297,7.2579651 -1.1138717,2.2277434 -1.1138717,2.2277434 0,0 Z"
       fill="#22255b"
       transform="translate(721,357)"
       id="path18" />
    <path
       d="m 0,0 c 0.66,0 1.32,0 2,0 1.1844297,5.6284098 1.1836689,11.151354 1.1875,16.875 0.012246,0.955195 0.024492,1.910391 0.037109,2.894531 C 3.2364785,25.53794 2.6538695,30.46967 1,36 0.67,36 0.34,36 0,36 0,24.12 0,12.24 0,0 Z"
       fill="#f8f9f9"
       transform="translate(496,446)"
       id="path19" />
    <path
       d="m 0,0 c 4.7284361,1.5731317 8.3433843,4.2064123 12.3125,7.125 0.645176,0.4679297 1.290352,0.9358594 1.955078,1.4179688 C 15.848489,9.6905929 17.424723,10.844655 19,12 15.513717,13.162094 15.136298,12.886161 11.988281,11.347656 11.230957,10.983496 10.473633,10.619336 9.6933594,10.244141 8.9076758,9.8541992 8.1219922,9.4642578 7.3125,9.0625 6.5152148,8.6764258 5.7179297,8.2903516 4.8964844,7.8925781 2.9265356,6.937094 0.96150061,5.9726789 -1,5 -0.67,3.35 -0.34,1.7 0,0 Z"
       fill="#dce0e8"
       transform="translate(450,698)"
       id="path20" />
    <path
       d="M 0,0 C 1.32,0.33 2.64,0.66 4,1 3.34,2.65 2.68,4.3 2,6 1.34,6 0.68,6 0,6 c -1.4720601,2.9441203 -1.2380719,5.962859 -1.3164062,9.195313 -0.020781,0.707443 -0.041562,1.414887 -0.062973,2.143768 -0.065431,2.261873 -0.1243504,4.523864 -0.1831207,6.785919 -0.043191,1.532564 -0.086806,3.065117 -0.1308594,4.597656 C -1.8004856,32.481651 -1.9017709,36.240763 -2,40 c -0.66,-0.33 -1.32,-0.66 -2,-1 0.069022,-4.751081 0.1570575,-9.501295 0.2624512,-14.251709 0.03318,-1.614811 0.061233,-3.229735 0.083984,-4.844727 0.033675,-2.32642 0.085994,-4.651802 0.1418457,-6.977783 0.00639,-0.717902 0.01278,-1.435804 0.019363,-2.175461 C -3.3642506,6.3473424 -2.6083425,3.5617995 0,0 Z"
       fill="#4d507d"
       transform="translate(304,351)"
       id="path21" />
    <path
       d="m 0,0 c 7.26,0 14.52,0 22,0 0,0.99 0,1.98 0,3 C 10.615,2.505 10.615,2.505 -1,2 -0.67,1.34 -0.34,0.68 0,0 Z"
       fill="#f8f9f9"
       transform="translate(713,648)"
       id="path22" />
    <path
       d="M 0,0 C 2.97,0 5.94,0 9,0 9,0.66 9,1.32 9,2 6.5466274,4.2080353 4.7540319,5.0092095 1.4414062,4.96875 -1.0546048,4.7138382 -3.5232156,4.3991711 -6,4 -6.33,3.01 -6.66,2.02 -7,1 -4.69,1.33 -2.38,1.66 0,2 0,1.34 0,0.68 0,0 Z"
       fill="#26285e"
       transform="translate(359,376)"
       id="path23" />
    <path
       d="M 0,0 C 0,0.33 0,0.66 0,1 2.97,1.495 2.97,1.495 6,2 4,4 4,4 0.0859375,4.1953125 -1.4844935,4.1820038 -3.0548622,4.158136 -4.625,4.125 -5.4267969,4.1159766 -6.2285937,4.1069531 -7.0546875,4.0976562 -9.0365852,4.0740622 -11.01833,4.0381906 -13,4 -12,2 -12,2 -10.039063,1.1132812 -9.2424219,0.84902344 -8.4457813,0.58476562 -7.625,0.3125 -6.8335156,0.04050781 -6.0420312,-0.23148437 -5.2265625,-0.51171875 -3,-1 -3,-1 0,0 Z"
       fill="#242560"
       transform="translate(657,364)"
       id="path24" />
    <path
       d="M 0,0 C 1.4170251,0.14230808 2.8336096,0.28900746 4.25,0.4375 5.4333594,0.55931641 5.4333594,0.55931641 6.640625,0.68359375 8.8236464,0.97634993 10.877318,1.4206442 13,2 12.67,2.99 12.34,3.98 12,5 8.37,5 4.74,5 1,5 0.67,3.35 0.34,1.7 0,0 Z"
       fill="#3f4172"
       transform="translate(341,355)"
       id="path25" />
    <path
       d="M 0,0 C 4.62,0 9.24,0 14,0 13.67,1.32 13.34,2.64 13,4 10.03,4 7.06,4 4,4 3.67,3.01 3.34,2.02 3,1 2.01,0.67 1.02,0.34 0,0 Z"
       fill="#21235c"
       transform="translate(322,632)"
       id="path26" />
    <path
       d="M 0,0 C 1.2684375,0.495 1.2684375,0.495 2.5625,1 6.2098922,2.0610595 9.2227466,2.1510901 13,2 12.67,2.99 12.34,3.98 12,5 7.71,5 3.42,5 -1,5 -0.67,3.35 -0.34,1.7 0,0 Z"
       fill="#27295f"
       transform="translate(369,363)"
       id="path27" />
    <path
       d="M 0,0 C 1.6532227,0.01740234 1.6532227,0.01740234 3.3398438,0.03515625 4.9969336,0.04869141 4.9969336,0.04869141 6.6875,0.0625 7.5421484,0.07410156 8.3967969,0.08570313 9.2773438,0.09765625 8.6173438,1.7476562 7.9573437,3.3976562 7.2773437,5.0976562 c -7.50769226,-0.6153846 -7.50769226,-0.6153846 -10,-2.5624999 -0.33,-0.4743751 -0.66,-0.9487501 -1,-1.4375001 1,-0.99999995 1,-0.99999995 3.7226563,-1.0976562 z"
       fill="#25285e"
       transform="translate(361.72266,687.90234)"
       id="path28" />
    <path
       d="M 0,0 C 4.95,0.99 9.9,1.98 15,3 12,6 12,6 9.4375,6.25 7,6 7,6 5,5 5,4.34 5,3.68 5,3 3.35,3 1.7,3 0,3 0,2.01 0,1.02 0,0 Z"
       fill="#e5e7ec"
       transform="translate(347,378)"
       id="path29" />
    <path
       d="M 0,0 C 0,0.66 0,1.32 0,2 -5.28,2 -10.56,2 -16,2 -9.9382208,-2.5463344 -7.1204134,-2.3734711 0,0 Z"
       fill="#23245f"
       transform="translate(634,374)"
       id="path30" />
    <path
       d="M 0,0 C 1.7924414,0.01740234 1.7924414,0.01740234 3.6210938,0.03515625 5.4174023,0.04869141 5.4174023,0.04869141 7.25,0.0625 8.1768359,0.07410156 9.1036719,0.08570313 10.058594,0.09765625 8.7350886,2.7446665 7.8543088,3.1412274 5.0585937,4.0976562 c -6.4444444,-0.4444444 -6.4444444,-0.4444444 -9,-3 1,-0.99999995 1,-0.99999995 3.9414063,-1.0976562 z"
       fill="#212359"
       transform="translate(305.94141,671.90234)"
       id="path31" />
    <path
       d="m 0,0 c 0,0.99 0,1.98 0,3 -3.63,0 -7.26,0 -11,0 -0.33,-0.99 -0.66,-1.98 -1,-3 4.2556655,-1.160636 7.6835078,-0.76173392 12,0 z"
       fill="#f6f7f8"
       transform="translate(428,405)"
       id="path32" />
    <path
       d="M 0,0 C 1.1885156,0.10183594 2.3770313,0.20367188 3.6015625,0.30859375 4.5167969,0.39238281 5.4320312,0.47617187 6.375,0.5625 c 0,0.66 0,1.32 0,2 -4.95,0 -9.9,0 -15,0 0,-0.66 0,-1.32 0,-2 C -5.6811338,-0.90943312 -3.2510996,-0.28686173 0,0 Z"
       fill="#24265d"
       transform="translate(729.625,653.4375)"
       id="path33" />
    <path
       d="M 0,0 C 3.96,0 7.92,0 12,0 11.67,0.99 11.34,1.98 11,3 6.9819531,3.8409866 3.9819646,4.0540494 0,3 0,2.01 0,1.02 0,0 Z"
       fill="#f5f6f7"
       transform="translate(656,624)"
       id="path34" />
    <path
       d="M 0,0 C 4.95,0 9.9,0 15,0 14.67,0.99 14.34,1.98 14,3 9.1666528,3.0833336 4.7630744,2.9526149 0,2 0,1.34 0,0.68 0,0 Z"
       fill="#f7f9f8"
       transform="translate(673,616)"
       id="path35" />
    <path
       d="M 0,0 C 2.31,0.66 4.62,1.32 7,2 6.67,2.99 6.34,3.98 6,5 3.03,5 0.06,5 -3,5 -2.67,4.01 -2.34,3.02 -2,2 -1.34,2 -0.68,2 0,2 0,1.34 0,0.68 0,0 Z"
       fill="#f6f7f7"
       transform="translate(362,651)"
       id="path36" />
    <path
       d="M 0,0 C 0.66,0.99 1.32,1.98 2,3 1,4 1,4 -1.7226562,4.0976562 -3.3758789,4.0802539 -3.3758789,4.0802539 -5.0625,4.0625 -6.1672266,4.0534766 -7.2719531,4.0444531 -8.4101563,4.0351562 -9.6921289,4.0177539 -9.6921289,4.0177539 -11,4 -11,3.34 -11,2.68 -11,2 -5.555,1.01 -5.555,1.01 0,0 Z"
       fill="#202259"
       transform="translate(748,396)"
       id="path37" />
    <path
       d="M 0,0 C 5.94,3.465 5.94,3.465 12,7 8,8 8,8 4,8 4,7.01 4,6.02 4,5 3.01,4.67 2.02,4.34 1,4 0.67,2.68 0.34,1.36 0,0 Z"
       fill="#4d517f"
       transform="translate(479,408)"
       id="path38" />
    <path
       d="M 0,0 C 2.5669564,0.39491636 4.6712399,0.83561997 7,2 7,2.66 7,3.32 7,4 2.38,4 -2.24,4 -7,4 -7,3.67 -7,3.34 -7,3 -5.5459375,2.5359375 -5.5459375,2.5359375 -4.0625,2.0625 -1.1593421,1.3047666 -1.1593421,1.3047666 0,0 Z"
       fill="#232660"
       transform="translate(441,700)"
       id="path39" />
    <path
       d="m 0,0 c 4.29,0 8.58,0 13,0 0.33,0.99 0.66,1.98 1,3 C 7.07,2.505 7.07,2.505 0,2 0,1.34 0,0.68 0,0 Z"
       fill="#21225d"
       transform="translate(680,680)"
       id="path40" />
    <path
       d="m 0,0 c 4.29,0 8.58,0 13,0 0,0.99 0,1.98 0,3 C 8.71,2.67 4.42,2.34 0,2 0,1.34 0,0.68 0,0 Z"
       fill="#21245d"
       transform="translate(711,672)"
       id="path41" />
    <path
       d="m 0,0 c 0,0.66 0,1.32 0,2 -4.95,0 -9.9,0 -15,0 0,-0.66 0,-1.32 0,-2 10.5580866,-1.332574 10.5580866,-1.332574 15,0 z"
       fill="#22245c"
       transform="translate(408,686)"
       id="path42" />
    <path
       d="M 0,0 C 0.99,0.33 1.98,0.66 3,1 3,1.99 3,2.98 3,4 -1.0560616,3.5319929 -4.4658868,3.1204679 -8,1 -4.903311,-0.8801326 -3.4198855,-1.2135077 0,0 Z"
       fill="#4e5080"
       transform="translate(316,675)"
       id="path43" />
    <path
       d="M 0,0 C 0.99,0 1.98,0 3,0 3.33,0.66 3.66,1.32 4,2 6.0246325,2.6521329 6.0246325,2.6521329 8,3 8,3.99 8,4.98 8,6 6,7 6,7 2.875,6.0625 1.92625,5.711875 0.9775,5.36125 0,5 0,3.35 0,1.7 0,0 Z"
       fill="#e7e9ec"
       transform="translate(322,608)"
       id="path44" />
    <path
       d="M 0,0 C 0.99,0.33 1.98,0.66 3,1 2.2575,1.7115625 2.2575,1.7115625 1.5,2.4375 -0.70453669,6.2035835 -0.24608113,9.7345938 0,14 -0.66,14 -1.32,14 -2,14 -2.1955134,12.39679 -2.3811198,10.79237 -2.5625,9.1875 -2.7191211,7.8475195 -2.7191211,7.8475195 -2.8789063,6.4804687 -3,4 -3,4 -2,1 -1.34,0.67 -0.68,0.34 0,0 Z"
       fill="#e0e8e6"
       transform="translate(598,422)"
       id="path45" />
    <path
       d="m 0,0 c 0.66,0.33 1.32,0.66 2,1 0,0.66 0,1.32 0,2 -3.3,0 -6.6,0 -10,0 0,-0.99 0,-1.98 0,-3 2.8845864,-1.4422932 4.9063941,-0.64450122 8,0 z"
       fill="#f9faf9"
       transform="translate(649,389)"
       id="path46" />
    <path
       d="M 0,0 C 1,3 1,3 2,6 -1.63,5.01 -5.26,4.02 -9,3 -6.2377672,0.23776722 -3.7929338,0.42143709 0,0 Z"
       fill="#3b3d72"
       transform="translate(390,385)"
       id="path47" />
    <path
       d="M 0,0 C 1.4656641,0.16435547 1.4656641,0.16435547 2.9609375,0.33203125 4.4343359,0.47705078 4.4343359,0.47705078 5.9375,0.625 c 1.1872266,0.25716797 1.1872266,0.25716797 2.3984375,0.5195312 0.33,0.66 0.66,1.32 1,2.0000001 -4.95,0 -9.9,0 -15,0 3,-3.00000005 3,-3.00000005 5.6640625,-3.1445313 z"
       fill="#21235b"
       transform="translate(697.66406,660.85547)"
       id="path48" />
    <path
       d="M 0,0 C 1.2258984,0.01353516 1.2258984,0.01353516 2.4765625,0.02734375 3.4162891,0.04474609 3.4162891,0.04474609 4.375,0.0625 c 0.33,0.99 0.66,1.98 1,3 -3.96,0 -7.92,0 -12,0 0,-0.66 0,-1.32 0,-2 C -4.2195436,-0.14022819 -2.6750305,-0.03821472 0,0 Z"
       fill="#22225b"
       transform="translate(342.625,620.9375)"
       id="path49" />
    <path
       d="m 0,0 c 0,0.66 0,1.32 0,2 -6.435,0.495 -6.435,0.495 -13,1 0,-0.66 0,-1.32 0,-2 4.7913759,-1.6290678 8.0563255,-2.2057743 13,-1 z"
       fill="#22235c"
       transform="translate(284,398)"
       id="path50" />
    <path
       d="M 0,0 C 0.66,0.33 1.32,0.66 2,1 -1.0829793,4.2591495 -3.9161331,7.0655367 -8,9 -8.99,8.67 -9.98,8.34 -11,8 -7.37,5.36 -3.74,2.72 0,0 Z"
       fill="#d8dbe3"
       transform="translate(568,702)"
       id="path51" />
    <path
       d="M 0,0 C 2.64,0.66 5.28,1.32 8,2 8,2.66 8,3.32 8,4 4.04,4 0.08,4 -4,4 -3.67,3.34 -3.34,2.68 -3,2 -2.01,2 -1.02,2 0,2 0,1.34 0,0.68 0,0 Z"
       fill="#22245b"
       transform="translate(673,668)"
       id="path52" />
    <path
       d="M 0,0 C 5.75,1.875 5.75,1.875 8,3 8,3.66 8,4.32 8,5 5.03,5 2.06,5 -1,5 -0.67,3.35 -0.34,1.7 0,0 Z"
       fill="#272960"
       transform="translate(425,659)"
       id="path53" />
    <path
       d="M 0,0 C 0.66,0 1.32,0 2,0 1.814375,0.598125 1.62875,1.19625 1.4375,1.8125 0.77906313,4.1640876 0.77906313,4.1640876 2,7 -0.97,6.01 -3.94,5.02 -7,4 -6.67,3.34 -6.34,2.68 -6,2 -4.02,2 -2.04,2 0,2 0,1.34 0,0.68 0,0 Z"
       fill="#36386e"
       transform="translate(430,400)"
       id="path54" />
    <path
       d="M 0,0 C 3.3,0 6.6,0 10,0 9.67,0.99 9.34,1.98 9,3 6.03,3 3.06,3 0,3 0,2.01 0,1.02 0,0 Z"
       fill="#22245c"
       transform="translate(616,392)"
       id="path55" />
    <path
       d="M 0,0 C 2.31,0.33 4.62,0.66 7,1 7,2.32 7,3.64 7,5 9.97,5.495 9.97,5.495 13,6 10.041143,7.2518241 9.0052487,7.0020352 5.9375,5.8125 3.1323021,4.0816332 1.7162526,2.7650737 0,0 Z"
       fill="#4d507d"
       transform="translate(269,663)"
       id="path56" />
    <path
       d="M 0,0 C 0.66,0.33 1.32,0.66 2,1 2,1.66 2,2.32 2,3 -1.63,3 -5.26,3 -9,3 -9,2.34 -9,1.68 -9,1 -6.0140558,-0.49297212 -3.2914638,-0.11755228 0,0 Z"
       fill="#f6f7f8"
       transform="translate(352,381)"
       id="path57" />
    <path
       d="M 0,0 C -0.33,0.99 -0.66,1.98 -1,3 -1.9075,3.103125 -2.815,3.20625 -3.75,3.3125 -7.0581503,4.012301 -8.4463282,4.902341 -11,7 c -0.66,0 -1.32,0 -2,0 -0.33,-0.99 -0.66,-1.98 -1,-3 1.957087,-0.6703172 3.915711,-1.3361468 5.875,-2 C -7.0344531,1.62875 -5.9439063,1.2575 -4.8203125,0.875 -2,0 -2,0 0,0 Z"
       fill="#49487e"
       transform="translate(662,671)"
       id="path58" />
    <path
       d="m 0,0 c 0,0.99 0,1.98 0,3 -3.96,0 -7.92,0 -12,0 0,-0.66 0,-1.32 0,-2 4.0636868,-0.77403558 7.8642517,-1.0984702 12,-1 z"
       fill="#1f2158"
       transform="translate(357,669)"
       id="path59" />
    <path
       d="M 0,0 C 2.31,0.66 4.62,1.32 7,2 4.6403126,4.0974999 3.4538301,4.969057 0.25,5.1875 -0.86375,5.0946875 -0.86375,5.0946875 -2,5 -1.34,3.35 -0.68,1.7 0,0 Z"
       fill="#e8e9e9"
       transform="translate(317,633)"
       id="path60" />
    <path
       d="M 0,0 C 2.97,0 5.94,0 9,0 8.34,1.32 7.68,2.64 7,4 4.69,3.67 2.38,3.34 0,3 0,2.01 0,1.02 0,0 Z"
       fill="#f9faf9"
       transform="translate(639,632)"
       id="path61" />
    <path
       d="m 0,0 c -0.33,0.66 -0.66,1.32 -1,2 -3.63,0 -7.26,0 -11,0 0,-0.66 0,-1.32 0,-2 4.2556655,-1.160636 7.6835078,-0.76173392 12,0 z"
       fill="#22225c"
       transform="translate(691,622)"
       id="path62" />
    <path
       d="M 0,0 C 4.7517398,0.43197635 6.9200005,1.327693 10,5 9.67,5.66 9.34,6.32 9,7 7.02,6.34 5.04,5.68 3,5 3,3.68 3,2.36 3,1 2.01,0.67 1.02,0.34 0,0 Z"
       fill="#4e527c"
       transform="translate(746,395)"
       id="path63" />
    <path
       d="M 0,0 C 1.5140039,0.01740234 1.5140039,0.01740234 3.0585938,0.03515625 4.0705078,0.04417969 5.0824219,0.05320312 6.125,0.0625 7.2986914,0.07990234 7.2986914,0.07990234 8.4960938,0.09765625 8.1660938,1.0876562 7.8360937,2.0776563 7.4960937,3.0976563 6.0381649,3.1516536 4.5796666,3.190448 3.1210938,3.2226563 2.3089844,3.2458594 1.496875,3.2690625 0.66015625,3.2929688 -1.5039062,3.0976563 -1.5039062,3.0976563 -3.5039063,1.0976562 -2.5039063,0.09765625 -2.5039063,0.09765625 0,0 Z"
       fill="#1e205a"
       transform="translate(666.50391,375.90234)"
       id="path64" />
    <path
       d="M 0,0 C -0.33,0.99 -0.66,1.98 -1,3 -4.96,3 -8.92,3 -13,3 -9.5187203,-0.48127974 -4.7250485,0 0,0 Z"
       fill="#21235b"
       transform="translate(382,677)"
       id="path65" />
    <path
       d="m 0,0 c 3.3,0 6.6,0 10,0 0,0.99 0,1.98 0,3 C 6.37,3 2.74,3 -1,3 -0.67,2.01 -0.34,1.02 0,0 Z"
       fill="#f9fbfb"
       transform="translate(342,616)"
       id="path66" />
    <path
       d="M 0,0 C 0,0.66 0,1.32 0,2 -1.2900964,2.5040377 -2.5821379,3.0030993 -3.875,3.5 -4.9539453,3.9176562 -4.9539453,3.9176562 -6.0546875,4.34375 -8,5 -8,5 -10,5 -10,4.01 -10,3.02 -10,2 -3.375,0 -3.375,0 0,0 Z"
       fill="#37366e"
       transform="translate(673,668)"
       id="path67" />
    <path
       d="M 0,0 C 3.3,0 6.6,0 10,0 9.67,0.66 9.34,1.32 9,2 7.02,2 5.04,2 3,2 3,2.66 3,3.32 3,4 2.01,4 1.02,4 0,4 0,2.68 0,1.36 0,0 Z"
       fill="#1f235b"
       transform="translate(276,664)"
       id="path68" />
    <path
       d="M 0,0 C 2.31,0 4.62,0 7,0 6.34,1.65 5.68,3.3 5,5 3.0625,4.1875 3.0625,4.1875 1,3 0.67,2.01 0.34,1.02 0,0 Z"
       fill="#f7f8f8"
       transform="translate(607,648)"
       id="path69" />
    <path
       d="M 0,0 C 1.32,0 2.64,0 4,0 4,0.99 4,1.98 4,3 4.66,3.33 5.32,3.66 6,4 5,5 5,5 1.4375,5.0625 0.303125,5.041875 -0.83125,5.02125 -2,5 -2,4.34 -2,3.68 -2,3 -1.01,3 -0.02,3 1,3 0.67,2.01 0.34,1.02 0,0 Z"
       fill="#22245d"
       transform="translate(337,355)"
       id="path70" />
    <path
       d="M 0,0 C 1.98,0 3.96,0 6,0 5.67,1.32 5.34,2.64 5,4 3.35,4 1.7,4 0,4 0,2.68 0,1.36 0,0 Z"
       fill="#222357"
       transform="translate(427,712)"
       id="path71" />
    <path
       d="M 0,0 C 0.66,0.33 1.32,0.66 2,1 -0.41589267,4.623839 -1.8305601,5.0640033 -6,6 -6.99,5.34 -7.98,4.68 -9,4 -7.546181,3.3030045 -6.0867705,2.6176613 -4.625,1.9375 -3.4068359,1.3632227 -3.4068359,1.3632227 -2.1640625,0.77734375 -1.4499219,0.52082031 -0.73578125,0.26429688 0,0 Z"
       fill="#40417a"
       transform="translate(570,705)"
       id="path72" />
    <path
       d="M 0,0 C 3.3,0 6.6,0 10,0 9.67,1.32 9.34,2.64 9,4 4.545,3.01 4.545,3.01 0,2 0,1.34 0,0.68 0,0 Z"
       fill="#22235f"
       transform="translate(632,696)"
       id="path73" />
    <path
       d="m 0,0 c 0,0.99 0,1.98 0,3 -3.3,0 -6.6,0 -10,0 0,-0.66 0,-1.32 0,-2 3.2145127,-1.60725635 6.4361254,-1.05748185 10,-1 z"
       fill="#23245d"
       transform="translate(403,373)"
       id="path74" />
    <path
       d="M 0,0 C 3.9384615,3.3230769 3.9384615,3.3230769 4.25,6.75 4.1675,7.4925 4.085,8.235 4,9 3.01,9.495 3.01,9.495 2,10 0,8 0,8 -0.1953125,6.0546875 -0.13020833,4.0364583 -0.06510417,2.0182292 0,0 Z"
       fill="#4b4f7b"
       transform="translate(720,351)"
       id="path75" />
    <path
       d="M 0,0 C 1.32,0.33 2.64,0.66 4,1 3.34,2.65 2.68,4.3 2,6 1.34,6 0.68,6 0,6 -0.66,6.66 -1.32,7.32 -2,8 -2.2008644,4.2840081 -2.1519437,3.2279156 0,0 Z"
       fill="#3f4375"
       transform="translate(304,351)"
       id="path76" />
    <path
       d="m 0,0 c -0.33,0.66 -0.66,1.32 -1,2 -2.6486043,0.5935561 -5.2919732,0.7420927 -8,1 0.33,-0.99 0.66,-1.98 1,-3 2.8617706,-1.4308853 4.9337577,-0.59991697 8,0 z"
       fill="#f4f6f6"
       transform="translate(682,646)"
       id="path77" />
    <path
       d="M 0,0 C 0.66,0.33 1.32,0.66 2,1 -1.625,5.875 -1.625,5.875 -5,7 -5,6.34 -5,5.68 -5,5 -5.66,4.34 -6.32,3.68 -7,3 -4.6963126,1.9334781 -2.3598181,0.93578995 0,0 Z"
       fill="#e7e8ea"
       transform="translate(590,409)"
       id="path78" />
    <path
       d="M 0,0 C 6.0546875,-0.1953125 6.0546875,-0.1953125 8,0 8.66,0.66 9.32,1.32 10,2 9.01,2 8.02,2 7,2 6.67,2.66 6.34,3.32 6,4 4.02,3.34 2.04,2.68 0,2 0,1.34 0,0.68 0,0 Z"
       fill="#1f255e"
       transform="translate(743,664)"
       id="path79" />
    <path
       d="m 0,0 c 3.3,0 6.6,0 10,0 0,0.99 0,1.98 0,3 C 6.7,2.67 3.4,2.34 0,2 0,1.34 0,0.68 0,0 Z"
       fill="#21225c"
       transform="translate(726,408)"
       id="path80" />
    <path
       d="M 0,0 C 3.3,0 6.6,0 10,0 9.67,0.66 9.34,1.32 9,2 6.7148437,2.4140625 6.7148437,2.4140625 3.9375,2.625 3.0183984,2.6997656 2.0992969,2.7745313 1.1523437,2.8515625 0.44207031,2.9005469 -0.26820313,2.9495313 -1,3 -0.67,2.01 -0.34,1.02 0,0 Z"
       fill="#24255f"
       transform="translate(381,384)"
       id="path81" />
    <path
       d="m 0,0 c 0.598125,0.350625 1.19625,0.70125 1.8125,1.0625 0,0.66 0,1.32 0,2 -2.64,0 -5.28,0 -8,0 0.33,-0.99 0.66,-1.98 1,-3 3,-1 3,-1 5.1875,-0.0625 z"
       fill="#21205c"
       transform="translate(608.1875,380.9375)"
       id="path82" />
    <path
       d="M 0,0 C 1.65,0.33 3.3,0.66 5,1 4.67,1.99 4.34,2.98 4,4 1.69,4 -0.62,4 -3,4 -2.67,3.34 -2.34,2.68 -2,2 -1.34,2 -0.68,2 0,2 0,1.34 0,0.68 0,0 Z"
       fill="#23265e"
       transform="translate(418,380)"
       id="path83" />
    <path
       d="M 0,0 C -0.33,0.99 -0.66,1.98 -1,3 -3.31,2.67 -5.62,2.34 -8,2 c 0,-0.66 0,-1.32 0,-2 2.8617706,-1.4308853 4.9337577,-0.59991697 8,0 z"
       fill="#272864"
       transform="translate(330,370)"
       id="path84" />
    <path
       d="M 0,0 C -0.99,1.485 -0.99,1.485 -2,3 -5,3.3125 -5,3.3125 -8,3 -8.66,2.34 -9.32,1.68 -10,1 -6.6198147,-0.04005702 -3.5219721,-0.08004482 0,0 Z"
       fill="#3a3b70"
       transform="translate(706,659)"
       id="path85" />
    <path
       d="M 0,0 C 1.98,0 3.96,0 6,0 6,1.32 6,2.64 6,4 4.35,3.67 2.7,3.34 1,3 0.67,2.01 0.34,1.02 0,0 Z"
       fill="#23245a"
       transform="translate(402,392)"
       id="path86" />
    <path
       d="M 0,0 C -0.99,0.33 -1.98,0.66 -3,1 -3.99,2.485 -3.99,2.485 -5,4 -7.475,3.01 -7.475,3.01 -10,2 -6.1983278,-0.53444815 -4.3158899,-1.3394141 0,0 Z"
       fill="#45457a"
       transform="translate(683,666)"
       id="path87" />
    <path
       d="M 0,0 C 0.61875,0.33 1.2375,0.66 1.875,1 3.9101834,2.1419323 3.9101834,2.1419323 6,2 6,2.66 6,3.32 6,4 3.03,4 0.06,4 -3,4 -2.01,2.68 -1.02,1.36 0,0 Z"
       fill="#22215c"
       transform="translate(599,660)"
       id="path88" />
    <path
       d="M 0,0 C 1.27875,-0.061875 2.5575,-0.12375 3.875,-0.1875 4.9539453,-0.239707 4.9539453,-0.239707 6.0546875,-0.29296875 6.6966406,-0.19628906 7.3385937,-0.09960938 8,0 8.66,0.99 9.32,1.98 10,3 5.8241225,4.3919591 3.8652522,2.8232322 0,1 0,0.67 0,0.34 0,0 Z"
       fill="#444475"
       transform="translate(348,644)"
       id="path89" />
    <path
       d="M 0,0 C 2.97,0.495 2.97,0.495 6,1 6,1.99 6,2.98 6,4 3.69,3.67 1.38,3.34 -1,3 -0.67,2.01 -0.34,1.02 0,0 Z"
       fill="#fafbfa"
       transform="translate(623,640)"
       id="path90" />
    <path
       d="M 0,0 C 1.32,0 2.64,0 4,0 4,0.66 4,1.32 4,2 4.66,2 5.32,2 6,2 6,2.99 6,3.98 6,5 4.02,4.34 2.04,3.68 0,3 0,2.01 0,1.02 0,0 Z"
       fill="#e6eaef"
       transform="translate(360,624)"
       id="path91" />
    <path
       d="m 0,0 c -1.98,0.99 -1.98,0.99 -4,2 0,0.33 0,0.66 0,1 -2.31,0.33 -4.62,0.66 -7,1 3.6001291,-3.84841383 5.7483008,-5.6298377 11,-4 z"
       fill="#5e618d"
       transform="translate(282,395)"
       id="path92" />
    <path
       d="m 0,0 c 0,0.99 0,1.98 0,3 -3.3,0 -6.6,0 -10,0 0,-0.66 0,-1.32 0,-2 0.94875,0.020625 1.8975,0.04125 2.875,0.0625 C -4.313372,1.0062674 -2.6726858,0 0,0 Z"
       fill="#24265e"
       transform="translate(427,693)"
       id="path93" />
    <path
       d="M 0,0 C -4.4307692,3.0769231 -4.4307692,3.0769231 -7.3125,2.6875 -8.1478125,2.3471875 -8.1478125,2.3471875 -9,2 -8,0 -8,0 -6.1875,-0.6875 -3.8118023,-1.0268854 -2.2666417,-0.72856341 0,0 Z"
       fill="#585e85"
       transform="translate(754,667)"
       id="path94" />
    <path
       d="M 0,0 C 2.97,0 5.94,0 9,0 9,0.66 9,1.32 9,2 5.6218257,2.8445436 3.3253476,3.1084492 0,2 0,1.34 0,0.68 0,0 Z"
       fill="#202663"
       transform="translate(635,656)"
       id="path95" />
    <path
       d="M 0,0 C 1.32,0 2.64,0 4,0 4,1.32 4,2.64 4,4 2.02,4 0.04,4 -2,4 -1.34,2.68 -0.68,1.36 0,0 Z"
       fill="#22235a"
       transform="translate(378,636)"
       id="path96" />
    <path
       d="M 0,0 C 1.65,0 3.3,0 5,0 5.33,0.99 5.66,1.98 6,3 5.34,3 4.68,3 4,3 4,3.66 4,4.32 4,5 3.34,5 2.68,5 2,5 2,4.01 2,3.02 2,2 1.34,2 0.68,2 0,2 0,1.34 0,0.68 0,0 Z"
       fill="#f9fbfb"
       transform="translate(364,624)"
       id="path97" />
    <path
       d="M 0,0 C 1.98,0.66 3.96,1.32 6,2 3.08235,3.9451 1.3746271,4.4527632 -2,5 -1.34,3.35 -0.68,1.7 0,0 Z"
       fill="#4d5080"
       transform="translate(637,386)"
       id="path98" />
    <path
       d="M 0,0 C 1.98,0 3.96,0 6,0 4.515,1.98 4.515,1.98 3,4 1.68,3.67 0.36,3.34 -1,3 -0.67,2.01 -0.34,1.02 0,0 Z"
       fill="#22255d"
       transform="translate(463,728)"
       id="path99" />
    <path
       d="M 0,0 C 2.9498202,1.1418659 4.8843777,2.6728155 7,5 3.1790276,4.4693094 0.93828597,3.5029843 -2,1 -1.34,0.67 -0.68,0.34 0,0 Z"
       fill="#c6cbd8"
       transform="translate(462,706)"
       id="path100" />
    <path
       d="M 0,0 C 2.64,0 5.28,0 8,0 7.67,0.99 7.34,1.98 7,3 5.02,3 3.04,3 1,3 0.67,2.01 0.34,1.02 0,0 Z"
       fill="#23235a"
       transform="translate(345,640)"
       id="path101" />
    <path
       d="M 0,0 C 0.33,0.66 0.66,1.32 1,2 2.65,2 4.3,2 6,2 4,4 4,4 0.875,4.125 -0.548125,4.063125 -0.548125,4.063125 -2,4 -2.33,3.34 -2.66,2.68 -3,2 -2.01,1.34 -1.02,0.68 0,0 Z"
       fill="#21215c"
       transform="translate(571,396)"
       id="path102" />
    <path
       d="M 0,0 C 0.99,0.99 1.98,1.98 3,3 2,4 2,4 -1.0625,4.0625 -2.5165625,4.0315625 -2.5165625,4.0315625 -4,4 -3.67,3.01 -3.34,2.02 -3,1 -2.01,0.67 -1.02,0.34 0,0 Z"
       fill="#f8f8f8"
       transform="translate(623,396)"
       id="path103" />
    <path
       d="M 0,0 C -0.33,0.99 -0.66,1.98 -1,3 -2.98,3 -4.96,3 -7,3 -7.33,3.66 -7.66,4.32 -8,5 -8.66,4.34 -9.32,3.68 -10,3 -3.375,0 -3.375,0 0,0 Z"
       fill="#565886"
       transform="translate(610,378)"
       id="path104" />
    <path
       d="M 0,0 C 0,0.66 0,1.32 0,2 -3,4 -3,4 -6,4 -6,3.01 -6,2.02 -6,1 -4,0 -4,0 0,0 Z"
       fill="#1e2056"
       transform="translate(506,744)"
       id="path105" />
    <path
       d="M 0,0 C 0,0.99 0,1.98 0,3 -2.97,2.67 -5.94,2.34 -9,2 -5.5647952,-0.29013653 -4.014669,-0.17842973 0,0 Z"
       fill="#242760"
       transform="translate(584,720)"
       id="path106" />
    <path
       d="m 0,0 c 0.78375,0.04125 1.5675,0.0825 2.375,0.125 -1.485,1.98 -1.485,1.98 -3,4 -1.32,-0.66 -2.64,-1.32 -4,-2 2,-2 2,-2 4.625,-2.125 z"
       fill="#28285f"
       transform="translate(455.625,695.875)"
       id="path107" />
    <path
       d="M 0,0 C 1.98,0 3.96,0 6,0 6,0.99 6,1.98 6,3 4.02,3 2.04,3 0,3 0,2.01 0,1.02 0,0 Z"
       fill="#232459"
       transform="translate(426,680)"
       id="path108" />
    <path
       d="M 0,0 C 2.31,0 4.62,0 7,0 7,0.66 7,1.32 7,2 4.36,2.33 1.72,2.66 -1,3 -0.67,2.01 -0.34,1.02 0,0 Z"
       fill="#f9fafa"
       transform="translate(398,640)"
       id="path109" />
    <path
       d="M 0,0 C 0.33,0.66 0.66,1.32 1,2 -0.59617578,5.8308219 -1.4998497,7.6665665 -5,10 -3.6651187,6.4060889 -2.0397728,3.245093 0,0 Z"
       fill="#81c0a9"
       transform="translate(471,481)"
       id="path110" />
    <path
       d="M 0,0 C 2.97,1.98 2.97,1.98 6,4 4.125,5.0625 4.125,5.0625 2,6 1.34,5.67 0.68,5.34 0,5 0,3.35 0,1.7 0,0 Z"
       fill="#555887"
       transform="translate(504,424)"
       id="path111" />
    <path
       d="M 0,0 C 2.31,0 4.62,0 7,0 7,0.66 7,1.32 7,2 4.36,2.33 1.72,2.66 -1,3 -0.67,2.01 -0.34,1.02 0,0 Z"
       fill="#24265f"
       transform="translate(423,400)"
       id="path112" />
    <path
       d="M 0,0 C 0.66,0.33 1.32,0.66 2,1 0.02,2.32 -1.96,3.64 -4,5 -4.99,4.34 -5.98,3.68 -7,3 -4.6963126,1.9334781 -2.3598181,0.93578995 0,0 Z"
       fill="#595987"
       transform="translate(589,386)"
       id="path113" />
  </g>
</svg>
